<?xml version="1.0" encoding="UTF-8"?>
<svg xmlns="http://www.w3.org/2000/svg" version="1.1" width="100" height="100" viewBox="0 0 100 100"><rect x="0" y="0" width="100" height="100" fill="#ffffff"/><g transform="scale(4)"><g transform="translate(0,0)"><path fill-rule="evenodd" d="M8 0L8 4L9 4L9 5L8 5L8 7L9 7L9 6L10 6L10 9L11 9L11 8L12 8L12 9L13 9L13 8L12 8L12 7L13 7L13 6L14 6L14 9L15 9L15 10L14 10L14 12L13 12L13 11L12 11L12 12L11 12L11 13L10 13L10 14L9 14L9 13L8 13L8 12L6 12L6 13L7 13L7 14L5 14L5 11L9 11L9 12L10 12L10 11L11 11L11 10L6 10L6 9L7 9L7 8L4 8L4 10L5 10L5 11L4 11L4 12L3 12L3 9L2 9L2 8L0 8L0 9L2 9L2 10L1 10L1 11L2 11L2 12L3 12L3 14L2 14L2 13L1 13L1 12L0 12L0 14L2 14L2 16L0 16L0 17L3 17L3 15L4 15L4 16L5 16L5 17L8 17L8 18L9 18L9 19L8 19L8 21L9 21L9 22L10 22L10 24L12 24L12 25L14 25L14 23L15 23L15 25L16 25L16 24L17 24L17 25L19 25L19 24L20 24L20 25L21 25L21 24L20 24L20 22L19 22L19 21L21 21L21 23L22 23L22 24L23 24L23 25L25 25L25 24L24 24L24 22L25 22L25 20L24 20L24 19L23 19L23 18L25 18L25 16L24 16L24 17L21 17L21 15L20 15L20 16L17 16L17 13L18 13L18 14L19 14L19 13L20 13L20 14L22 14L22 13L23 13L23 14L25 14L25 12L23 12L23 11L22 11L22 12L21 12L21 11L20 11L20 10L21 10L21 9L23 9L23 10L24 10L24 9L25 9L25 8L21 8L21 9L20 9L20 8L19 8L19 9L20 9L20 10L17 10L17 3L16 3L16 2L17 2L17 0L15 0L15 1L16 1L16 2L14 2L14 3L13 3L13 1L14 1L14 0L13 0L13 1L11 1L11 2L12 2L12 5L13 5L13 6L12 6L12 7L11 7L11 3L10 3L10 2L9 2L9 0ZM14 3L14 4L13 4L13 5L14 5L14 6L15 6L15 7L16 7L16 3ZM16 10L16 11L17 11L17 10ZM12 12L12 13L11 13L11 14L12 14L12 13L13 13L13 14L14 14L14 13L13 13L13 12ZM15 12L15 14L16 14L16 13L17 13L17 12ZM7 14L7 15L6 15L6 16L7 16L7 15L8 15L8 14ZM9 15L9 16L8 16L8 17L9 17L9 18L11 18L11 20L10 20L10 19L9 19L9 21L10 21L10 22L12 22L12 21L13 21L13 22L15 22L15 23L18 23L18 22L17 22L17 21L16 21L16 17L15 17L15 16L16 16L16 15L14 15L14 17L15 17L15 18L13 18L13 17L12 17L12 16L13 16L13 15L12 15L12 16L10 16L10 15ZM22 15L22 16L23 16L23 15ZM9 16L9 17L10 17L10 16ZM17 17L17 20L20 20L20 17ZM18 18L18 19L19 19L19 18ZM21 18L21 21L22 21L22 22L23 22L23 20L22 20L22 18ZM12 19L12 20L11 20L11 21L12 21L12 20L13 20L13 21L15 21L15 22L16 22L16 21L15 21L15 19L14 19L14 20L13 20L13 19ZM8 23L8 25L9 25L9 23ZM12 23L12 24L13 24L13 23ZM0 0L0 7L7 7L7 0ZM1 1L1 6L6 6L6 1ZM2 2L2 5L5 5L5 2ZM18 0L18 7L25 7L25 0ZM19 1L19 6L24 6L24 1ZM20 2L20 5L23 5L23 2ZM0 18L0 25L7 25L7 18ZM1 19L1 24L6 24L6 19ZM2 20L2 23L5 23L5 20Z" fill="#000000"/></g></g></svg>
